<?xml version="1.0" encoding="utf-8"?>
<!-- Generator: Adobe Illustrator 21.1.0, SVG Export Plug-In . SVG Version: 6.00 Build 0)  -->
<svg version="1.1" id="Слой_1" xmlns="http://www.w3.org/2000/svg" xmlns:xlink="http://www.w3.org/1999/xlink" x="0px" y="0px"
	 viewBox="0 0 588.7340698 588.7340698" enable-background="new 0 0 588.7340698 588.7340698" xml:space="preserve">
<g>
	<g>
		<path fill="#1A171B" d="M146.1569977,420.5600281c0,9.8910217-5.3029938,17.6400146-16.4163971,17.6400146
			s-16.6175003-7.7489929-16.6175003-17.6400146v-35.2767029h-10.0944977v35.2767029
			c0,15.906311,10.0944977,27.3252258,26.711998,27.3252258c16.822998,0,26.5093994-11.4189148,26.5093994-27.3252258v-35.2767029
			h-10.0930023V420.5600281z"/>
		<polygon fill="#1A171B" points="232.756897,425.6587524 190.4459991,385.2833252 187.7953949,385.2833252 
			187.7953949,446.4581299 197.8890076,446.4581299 197.8890076,405.4717407 240.2008057,446.4581299 242.8513947,446.4581299 
			242.8513947,385.2833252 232.756897,385.2833252 		"/>
		<rect x="274.998291" y="385.2833252" fill="#1A171B" width="10.0937996" height="61.1748009"/>
		<path fill="#1A171B" d="M355.660614,424.9449463c7.7471924-3.0585938,12.7432861-9.3806152,12.7432861-18.9645996
			c0-13.2538147-9.381012-20.6970215-24.7767029-20.6970215h-26.5075073v61.1748047h10.0945129v-19.3728027h17.4343872
			l14.9875183,19.3728027h11.2156067v-1.4272766l-15.1911011-19.4746094V424.9449463z M343.9341125,418.3174438h-16.7199097
			v-24.0614014h16.1086121c8.9724731,0,14.683075,4.0774841,14.683075,12.1319885
			C358.0058899,414.5453491,352.3969116,418.3174438,343.9341125,418.3174438z"/>
		<rect x="398.1148071" y="385.2833252" fill="#1A171B" width="10.0927" height="61.1748009"/>
		<path fill="#1A171B" d="M464.0900879,410.2627258c-11.1131897-3.0586853-14.6821899-5.0965881-14.6821899-9.2780762
			c0-4.8939209,4.6910095-7.6468201,12.3369141-7.6468201c10.70578,0,17.0278015,4.995697,17.0278015,4.995697l5.5049744-8.257782
			c0,0-6.7294922-6.1173096-22.5327759-6.1173096c-14.9875183,0-23.3479004,6.7286072-23.3479004,17.4338989
			c0,9.5838928,6.83078,14.1719971,21.2079773,18.2510986c11.7237244,3.3641968,14.8850098,5.7095032,14.8850098,10.3999023
			c0,4.8934021-3.7716064,8.4623108-12.8475952,8.4623108c-10.9095154,0-18.2492065-5.9139099-18.2492065-5.9139099
			l-5.5061951,7.6465149c0,0,7.7492981,7.6470032,23.960083,7.6470032c16.5181274,0,23.8586121-8.1556091,23.8586121-18.5555115
			C485.7055969,419.8467407,479.5882874,414.4428406,464.0900879,410.2627258z"/>
	</g>
	<g>
		<path fill="#1A171B" d="M248.3486023,166.7058411c2.0449982-0.4020081,8.3779907-1.5700989,16.4484863-1.4902954
			c13.2328186,0.1307983,23.4840088,3.5363007,29.7653198,5.677597c7.2601929,2.4752045,23.3491821,8.7615967,39.6211853,22.8862915
			c6.1405945,5.330307,10.7192993,10.3983002,13.8323059,14.1585999c1.452301-2.8862,2.7002869-5.8471985,3.7145996-8.8127899
			c1.3327942-3.8989105,2.3157043-7.9290009,2.9208069-11.9776001l0.9570007-6.4025116
			c-3.8760071-3.7293854-9.0861206-8.3304901-15.6416016-13.0727997
			c-3.1185913-2.2559967-13.0426025-9.2466888-25.7384033-14.8843994
			c-10.0670166-4.4701996-33.4884949-14.8709869-63.6096954-11.1498871
			c-22.3554993,2.7621002-38.0702057,12.0269928-41.6990051,14.240799c-2.6463013,1.6141968-5.2131042,3.350296-7.629303,5.1604919
			l-1.6623993,1.2452087l-0.247406,2.0623932c-0.3585968,2.990799-0.5787964,6.0823975-0.6546936,9.1869049
			c-0.247406,10.218689,1.0294952,26.0146027,8.5175018,43.23349c2.1613007,4.9712067,4.7528992,9.858902,7.7028046,14.5269012
			c0.8173981,1.2931976,2.4558868,3.7781067,4.8874969,6.9748077c-0.2508087-1.8090057-0.4694061-3.6199036-0.6508026-5.405304
			c-1.0641022-10.4434967-1.0569-21.1091919,0.0202942-31.7001038c0.89151-8.7628021,2.373703-15.8005981,3.4374084-20.2437897
			c0.4830933-2.0192108,0.9312897-3.7091064,1.2688904-4.9380035c2.8843994-1.697998,6.5398102-3.5986023,10.9195099-5.3240967
			C237.5189972,169.5980377,242.2368927,167.9065399,248.3486023,166.7058411z"/>
		<path fill="#1A171B" d="M318.2499084,289.8763428c-8.0343933,3.6092834-14.8705139,5.844696-19.2502136,7.1451111
			c-1.9902039,0.5909729-3.6777954,1.0478821-4.9107971,1.369873c-2.9128113-1.6488953-6.3865967-3.8642883-10.0708008-6.7945862
			c-2.2626953-1.7994995-6.0864868-5.0397034-10.1821899-9.7322083c-1.3706055-1.5701904-5.5489197-6.4704895-9.5148926-13.4994812
			c-6.5031128-11.5256042-8.6794128-22.1059113-9.9657135-28.6166077
			c-1.4866943-7.5249023-4.0870056-24.6018066,0.0093994-45.7559967c1.5458984-7.9832001,3.6457977-14.4824066,5.3455963-19.0585022
			c-3.225708,0.1855011-6.4138031,0.5849915-9.489502,1.1895905c-4.0425873,0.7949982-8.024292,1.9589996-11.8331909,3.459198
			l-6.0230103,2.3726044c-1.2917938,5.221405-2.6716919,12.033905-3.5007935,20.0821991
			c-0.3943939,3.8289032-1.4864044,15.9185028-0.0209961,29.7322998c1.1618958,10.9535065,3.8656006,36.4375,22.1487885,60.6625061
			c13.5697174,17.9794922,29.4506989,26.9563904,33.1822968,28.9923096c2.7212219,1.4844971,5.5079956,2.839386,8.2837219,4.026886
			l1.90979,0.8171997l1.9096069-0.8171997c2.7695007-1.1847839,5.5568848-2.5397949,8.2834778-4.0264893
			c8.9734192-4.8950195,22.0147095-13.8990173,33.1825256-28.993103c3.2245789-4.3573914,6.1615906-9.0455017,8.7292786-13.9342957
			c0.7113037-1.3544006,2.04422-4.0158997,3.5966187-7.7199097c-1.4414063,1.1214905-2.900116,2.2163086-4.3558044,3.2662964
			C337.2008972,280.1870422,327.9606934,285.5137329,318.2499084,289.8763428z"/>
		<path fill="#1A171B" d="M390.0119934,173.4247437c-0.074707-3.0988007-0.2945862-6.1900024-0.6542053-9.1874084
			l-0.2471924-2.0623932l-1.6626892-1.2454987c-2.4104919-1.8059998-4.9779053-3.5422974-7.6286926-5.1604004
			c-8.7259216-5.3237-23.0439148-12.1157074-41.7000122-14.2402954c-5.3858948-0.6139069-10.9143066-0.8135071-16.4319153-0.5927124
			c-1.5286865,0.061203-4.5,0.2377014-8.4839783,0.7452087c1.6919861,0.6875,3.3695068,1.4035034,5.0065002,2.1389923
			c9.5762024,4.3003998,18.8092957,9.6395111,27.4427795,15.8679047
			c7.1430054,5.1533051,12.4969177,9.9559021,15.8130188,13.0986938c1.5069885,1.428009,2.7463989,2.6610107,3.6417847,3.5679016
			c0.0284119,3.3469086-0.1531982,7.4629059-0.848999,12.1186066c-0.4270935,2.8594971-1.3213806,7.7912903-3.3370972,13.6844025
			c-0.6745911,1.9720001-2.8292847,8.0406952-6.9336853,14.9898987
			c-6.7297058,11.3943939-14.8043213,18.5694885-19.7998047,22.9386902
			c-5.773407,5.0499115-19.2622986,15.84021-39.6304016,22.8699036c-7.6867981,2.65271-14.3649902,4.0838928-19.1779175,4.8996887
			c1.7733154,2.7009277,3.713501,5.262207,5.7748108,7.6234131c2.7098999,3.1036987,5.7087097,5.9697876,8.9125061,8.5181885
			l5.0662842,4.0299072c5.1676025-1.4918823,11.7575073-3.7033997,19.1418152-7.0093994
			c3.5133057-1.5729065,14.5292969-6.6719971,25.7593994-14.8479004
			c8.9052124-6.4830017,29.6231995-21.5664978,41.4612122-49.5126953
			C390.281311,195.9159393,390.1146851,177.6740417,390.0119934,173.4247437z"/>
	</g>
</g>
</svg>
